#!OML:ASF H:\MichaelJackson\Top Level 1\Subject 1\Session 1\male.ASF
:FULLY-SPECIFIED
:DEGREES
216
root 24.7018 16.2257 13.0247 -153.525 48.5881 -162.235
lowerback 3.5179 1.4785 5.50576
upperback 0.333437 2.2867 1.97993
thorax -1.49848 1.14128 -1.15275
lowerneck -11.7151 -2.19393 3.96864
upperneck 3.59964 -3.45342 -0.243219
head 3.15892 -1.64019 -0.997436
rclavicle -3.97569e-014 -7.95139e-016
rhumerus -25.8757 19.4074 -73.8751
rradius 37.7175
rwrist 43.0725
rhand -18.0387 -22.7586
rfingers 7.12502
rthumb 8.23299 -52.5782
lclavicle -3.97569e-014 -7.95139e-016
lhumerus -41.2155 -16.686 96.1051
lradius 59.7273
lwrist 18.5446
lhand -19.6781 5.6684
lfingers 7.12502
lthumb 6.65055 35.544
rfemur -21.6356 -22.4734 23.1508
rtibia 40.8869
rfoot -23.1712 0.368084
rtoes 11.616
lfemur -44.5702 21.2066 -1.91001
ltibia 53.0043
lfoot -16.1048 9.83423
ltoes 16.1073
217
root 24.7086 16.2388 13.1188 -153.8 47.1636 -162.474
lowerback 3.71981 1.74802 5.62808
upperback 0.330439 2.66994 1.98395
thorax -1.5868 1.33098 -1.23988
lowerneck -11.4498 -1.94843 3.93972
upperneck 3.2525 -3.09925 -0.271328
head 2.99674 -1.47058 -0.969716
rclavicle -9.54166e-015 1.98785e-014
rhumerus -25.6697 19.3718 -74.0523
rradius 37.5034
rwrist 42.9187
rhand -20.3829 -24.0842
rfingers 7.12502
rthumb 5.97019 -53.9801
lclavicle -9.54166e-015 1.98785e-014
lhumerus -41.4319 -17.3749 96.3728
lradius 60.2722
lwrist 18.1853
lhand -19.4411 5.03155
lfingers 7.12502
lthumb 6.8794 34.8998
rfemur -21.7924 -22.8474 24.0371
rtibia 40.5699
rfoot -22.8339 -1.27644
rtoes 8.36485
lfemur -45.3499 22.2847 -2.23776
ltibia 52.9091
lfoot -15.2165 11.9248
ltoes 19.1214
218
root 24.717 16.2501 13.2073 -154.097 45.6652 -162.724
lowerback 3.87905 1.99717 5.77386
upperback 0.320018 3.02536 1.99699
thorax -1.65837 1.507 -1.32945
lowerneck -11.174 -1.71267 3.92665
upperneck 2.94954 -2.75963 -0.33836
head 2.84785 -1.30871 -0.960334
rclavicle -3.18055e-014 5.08889e-014
rhumerus -25.5403 19.5099 -74.2595
rradius 37.3811
rwrist 42.5434
rhand -22.4159 -25.1693
rfingers 7.12502
rthumb 4.0072 -55.1114
lclavicle -3.18055e-014 5.08889e-014
lhumerus -41.6409 -17.9935 96.5858
lradius 60.7485
lwrist 17.6659
lhand -18.9754 4.41485
lfingers 7.12502
lthumb 7.32894 34.2679
rfemur -21.905 -23.063 24.8701
rtibia 40.2431
rfoot -22.4447 -3.03544
rtoes 5.12023
lfemur -46.1426 23.2834 -2.60659
ltibia 52.8075
lfoot -14.5008 14.0068
ltoes 21.3364
219
root 24.7267 16.2596 13.2906 -154.434 44.0719 -163.008
lowerback 4.00733 2.21571 5.93293
upperback 0.303247 3.33969 2.01915
thorax -1.72007 1.66266 -1.41492
lowerneck -10.902 -1.49394 3.91088
upperneck 2.69012 -2.44353 -0.422587
head 2.71493 -1.15834 -0.959334
rclavicle 1.36963e-013 -1.19271e-015
rhumerus -25.4673 19.7724 -74.4748
rradius 37.3425
rwrist 42.0133
rhand -24.1189 -25.9585
rfingers 7.12502
rthumb 2.36256 -55.9252
lclavicle 1.36963e-013 -1.19271e-015
lhumerus -41.8278 -18.533 96.7366
lradius 61.1439
lwrist 16.9741
lhand -18.3231 3.84468
lfingers 7.12502
lthumb 7.95845 33.6749
rfemur -21.9538 -23.1468 25.6231
rtibia 39.9222
rfoot -22.0595 -4.84996
rtoes 1.88485
lfemur -46.9451 24.1585 -3.01962
ltibia 52.6807
lfoot -13.9334 16.0099
ltoes 22.851
220
root 24.7382 16.2676 13.3684 -154.832 42.3923 -163.35
lowerback 4.10401 2.40347 6.07866
upperback 0.281985 3.61088 2.04675
thorax -1.7714 1.79706 -1.48467
lowerneck -10.62 -1.29345 3.86979
upperneck 2.46092 -2.14993 -0.504589
head 2.59102 -1.01874 -0.955692
rclavicle 1.05555e-013 -2.06736e-014
rhumerus -25.4408 20.112 -74.6809
rradius 37.3892
rwrist 41.3976
rhand -25.5217 -26.4036
rfingers 7.12502
rthumb 1.00766 -56.3809
lclavicle 1.05555e-013 -2.06736e-014
lhumerus -41.9941 -19.0035 96.8436
lradius 61.4626
lwrist 16.2487
lhand -17.6841 3.32417
lfingers 7.12502
lthumb 8.57517 33.13
rfemur -21.9164 -23.0889 26.2597
rtibia 39.6147
rfoot -21.7129 -6.63964
rtoes -0.903198
lfemur -47.7412 24.9134 -3.50128
ltibia 52.5145
lfoot -13.504 17.8766
ltoes 23.839
221
root 24.7517 16.2742 13.4407 -155.281 40.6224 -163.729
lowerback 4.17433 2.55475 6.2144
upperback 0.261653 3.8318 2.08356
thorax -1.81078 1.90695 -1.53612
lowerneck -10.3331 -1.10559 3.81003
upperneck 2.25757 -1.87276 -0.576564
head 2.47549 -0.886546 -0.947612
rclavicle 4.07509e-014 -9.14409e-015
rhumerus -25.4362 20.4999 -74.874
rradius 37.4997
rwrist 40.7543
rhand -26.6702 -26.4897
rfingers 7.12502
rthumb -0.101591 -56.4694
lclavicle 4.07509e-014 -9.14409e-015
lhumerus -42.1275 -19.3802 96.8906
lradius 61.7193
lwrist 15.5904
lhand -17.0344 2.92037
lfingers 7.12502
lthumb 9.2022 32.6996
rfemur -21.7686 -22.9067 26.7843
rtibia 39.3204
rfoot -21.452 -8.33275
rtoes -3.06135
lfemur -48.5224 25.5773 -4.0491
ltibia 52.3041
lfoot -13.2154 19.5641
ltoes 24.5435
222
root 24.7678 16.2801 13.5072 -155.767 38.7921 -164.139
lowerback 4.1997 2.67911 6.32201
upperback 0.247936 4.01173 2.12342
thorax -1.82246 1.99753 -1.5645
lowerneck -10.0398 -0.924228 3.73564
upperneck 2.06806 -1.6043 -0.631829
head 2.36397 -0.757739 -0.933023
rclavicle -6.77856e-014 -7.55382e-015
rhumerus -25.4205 20.8551 -75.0456
rradius 37.6453
rwrist 40.1732
rhand -27.5732 -26.2175
rfingers 7.12502
rthumb -0.973665 -56.195
lclavicle -6.77856e-014 -7.55382e-015
lhumerus -42.2257 -19.6704 96.8847
lradius 61.9165
lwrist 15.0179
lhand -16.5109 2.62663
lfingers 7.12502
lthumb 9.70727 32.3829
rfemur -21.5076 -22.6063 27.186
rtibia 39.0321
rfoot -21.3255 -9.84414
rtoes -4.43204
lfemur -49.2898 26.2006 -4.68974
ltibia 52.0549
lfoot -13.1128 21.0509
ltoes 25.3074
223
root 24.7864 16.2854 13.5674 -156.288 36.9232 -164.568
lowerback 4.19226 2.77949 6.3977
upperback 0.243378 4.15485 2.16281
thorax -1.81073 2.07082 -1.57185
lowerneck -9.74933 -0.7459 3.65119
upperneck 1.89922 -1.34138 -0.659789
head 2.26033 -0.630322 -0.909326
rclavicle 7.43455e-014 -3.10104e-014
rhumerus -25.3931 21.1519 -75.2045
rradius 37.8169
rwrist 39.6767
rhand -28.2713 -25.6168
rfingers 7.12502
rthumb -1.6479 -55.5901
lclavicle 7.43455e-014 -3.10104e-014
lhumerus -42.2967 -19.8699 96.8162
lradius 62.0778
lwrist 14.5863
lhand -16.1381 2.45583
lfingers 7.12502
lthumb 10.0669 32.195
rfemur -21.1167 -22.2089 27.4686
rtibia 38.7332
rfoot -21.3456 -11.134
rtoes -5.09822
lfemur -50.0336 26.8311 -5.43283
ltibia 51.782
lfoot -13.2071 22.356
ltoes 26.284
224
root 24.8073 16.2897 13.6214 -156.807 35.023 -164.973
lowerback 4.14549 2.86118 6.4623
upperback 0.243773 4.26894 2.20344
thorax -1.77467 2.13061 -1.56785
lowerneck -9.48132 -0.570195 3.56855
upperneck 1.76604 -1.08586 -0.65302
head 2.17287 -0.504855 -0.876612
rclavicle -2.46493e-014 2.06736e-014
rhumerus -25.3504 21.3382 -75.3609
rradius 38.0001
rwrist 39.2998
rhand -28.8086 -24.735
rfingers 7.12502
rthumb -2.16687 -54.7037
lclavicle -2.46493e-014 2.06736e-014
lhumerus -42.3452 -19.969 96.6778
lradius 62.223
lwrist 14.3448
lhand -15.8435 2.44536
lfingers 7.12502
lthumb 10.3512 32.1706
rfemur -20.6145 -21.7547 27.6825
rtibia 38.408
rfoot -21.4972 -12.1744
rtoes -5.2138
lfemur -50.7859 27.5276 -6.27518
ltibia 51.5079
lfoot -13.5198 23.5038
ltoes 27.5769
225
root 24.8302 16.2933 13.6687 -157.316 33.1066 -165.351
lowerback 4.04768 2.92804 6.51339
upperback 0.252286 4.35736 2.24062
thorax -1.70409 2.17884 -1.55517
lowerneck -9.25605 -0.393887 3.50451
upperneck 1.67988 -0.835658 -0.614013
head 2.10881 -0.380276 -0.838643
rclavicle -4.26393e-014 -1.15295e-014
rhumerus -25.288 21.3881 -75.5256
rradius 38.1933
rwrist 39.0253
rhand -29.2104 -23.6541
rfingers 7.12502
rthumb -2.55491 -53.6185
lclavicle -4.26393e-014 -1.15295e-014
lhumerus -42.3716 -19.9824 96.4626
lradius 62.3721
lwrist 14.3573
lhand -15.6357 2.59764
lfingers 7.12502
lthumb 10.5516 32.3128
rfemur -20.0058 -21.2856 27.8345
rtibia 38.0404
rfoot -21.7632 -12.923
rtoes -4.87279
lfemur -51.559 28.3142 -7.23161
ltibia 51.2547
lfoot -13.9926 24.5419
ltoes 29.0131
226
root 24.8545 16.2964 13.7089 -157.801 31.1761 -165.682
lowerback 3.90703 2.98363 6.56488
upperback 0.25785 4.42696 2.27714
thorax -1.61382 2.21824 -1.53971
lowerneck -9.0676 -0.219246 3.4728
upperneck 1.64362 -0.594505 -0.551466
head 2.0677 -0.258768 -0.800475
rclavicle -7.76254e-014 -8.74653e-015
rhumerus -25.2457 21.2985 -75.7165
rradius 38.4079
rwrist 38.812
rhand -29.5009 -22.4679
rfingers 7.12502
rthumb -2.83542 -52.4288
lclavicle -7.76254e-014 -8.74653e-015
lhumerus -42.3921 -19.9243 96.1767
lradius 62.5332
lwrist 14.6295
lhand -15.5001 2.9123
lfingers 7.12502
lthumb 10.6824 32.6207
rfemur -19.3127 -20.8747 27.9708
rtibia 37.6187
rfoot -22.0638 -13.3922
rtoes -4.25982
lfemur -52.3692 29.2054 -8.29169
ltibia 51.0421
lfoot -14.5644 25.5069
ltoes 30.4431
227
root 24.8795 16.2987 13.7419 -158.268 29.222 -165.966
lowerback 3.7316 3.02745 6.62438
upperback 0.261109 4.47828 2.31533
thorax -1.50732 2.24904 -1.52379
lowerneck -8.93333 -0.0512626 3.45579
upperneck 1.67078 -0.368175 -0.45195
head 2.05692 -0.142864 -0.754896
rclavicle -6.74874e-014 -2.26615e-014
rhumerus -25.2241 21.0835 -75.9343
rradius 38.6456
rwrist 38.6008
rhand -29.7007 -21.2901
rfingers 7.12502
rthumb -3.02846 -51.2483
lclavicle -6.74874e-014 -2.26615e-014
lhumerus -42.3967 -19.8085 95.8247
lradius 62.6927
lwrist 15.1009
lhand -15.4086 3.36196
lfingers 7.12502
lthumb 10.7707 33.0658
rfemur -18.5418 -20.5701 28.106
rtibia 37.1335
rfoot -22.3094 -13.6612
rtoes -3.95662
lfemur -53.2199 30.1798 -9.44745
ltibia 50.8816
lfoot -15.1511 26.4315
ltoes 31.7037
